<?xml version="1.0" encoding="UTF-8"?>
<svg xmlns="http://www.w3.org/2000/svg" version="1.1" viewBox="0 0 71.82 73.78">
  <defs>
    <style>
      .cls-1 {
        fill: #ed202e;
      }
    </style>
  </defs>
  <!-- Generator: Adobe Illustrator 28.7.5, SVG Export Plug-In . SVG Version: 1.2.0 Build 176)  -->
  <g>
    <g id="Layer_1">
      <g>
        <path class="cls-1" d="M66.41,37.63v-15.51L34.37,3.62l-7.38,4.26L14.25.55l-.49.28L.47,8.5l-.47.27v37.09l18.08,10.44v9.22l14.33,8.26,39.41-22.75v-10.28l-5.41-3.12ZM34.37,5.83l29.17,16.84-11.45,6.62-10.63-6.13v-6.96l-12.55-7.22,5.46-3.15ZM64.5,24.33v12.19l-7.01-4.04-4.45,2.57v-4.1l11.46-6.62ZM51.13,30.95v5.21l-9.67,5.57v-16.36l9.67,5.58ZM2.87,9.32L14.25,2.75l10.83,6.24,1.91,1.09,11.61,6.67-4.13,2.37-1.92,1.11-5.41,3.11-5.19-2.99-1.91-1.11L2.87,9.33h0ZM39.55,18.4v24.44l-.83.48-1.91,1.1-8.71,5.04v-24.46l6.37-3.67,1.92-1.1,3.16-1.83ZM1.91,44.76V10.99l18.13,10.46,1.91,1.11,4.23,2.44v25.56l-7.11,4.11L1.91,44.76ZM31.45,71.02l-11.45-6.61v-6.97l11.45,6.62v6.96ZM29.02,60.45l-.92-.53-.04-.02-1.88-1.09-5.24-3.02.04-.02,5.2-3,1.92-1.1,10.62-6.14.83-.48.96-.56v-.13l.12.06.83-.48,9.67-5.58,1.91-1.1,4.45-2.57,7.01,4.04,1.91,1.11,2.55,1.46-2.55,1.47-1.91,1.1-11.46,6.62-.95.55-.96.56-.96.55-17.76,10.25-3.39-1.95ZM69.9,49.92l-36.54,21.1v-6.96l18.73-10.81,14.32-8.28,3.49-2.01v6.96Z"/>
        <polygon class="cls-1" points="40.63 44.42 40.51 44.49 40.51 44.36 40.63 44.42"/>
        <polygon class="cls-1" points="28.1 59.88 28.1 59.92 28.06 59.9 28.1 59.88"/>
        <polygon class="cls-1" points="26.18 58.78 26.18 58.81 20.94 55.79 20.98 55.77 26.18 58.78"/>
      </g>
    </g>
  </g>
</svg>